<?xml version="1.0" encoding="utf-8"?>
<!-- Generator: Adobe Illustrator 18.1.1, SVG Export Plug-In . SVG Version: 6.00 Build 0)  -->
<svg version="1.1" id="Layer_1" xmlns="http://www.w3.org/2000/svg" xmlns:xlink="http://www.w3.org/1999/xlink" x="0px" y="0px"
	 width="60px" height="58px" viewBox="0 0 60 58" enable-background="new 0 0 60 58" xml:space="preserve">
<path fill="#FFFFFF" d="M29.9,20.4c1.2-0.7,2.3-1.4,3.4-1.8c4.2-1.5,8.5,1.3,9.3,5.8c0.5,2.7-0.3,5-1.9,7.1c-2.5,3.4-5.9,5.9-9.6,8
	c-0.8,0.4-1.6,0.4-2.4,0c-3.5-2-6.6-4.3-9.1-7.4c-1.5-1.9-2.5-4-2.4-6.5c0.2-4.5,3.8-7.8,8.1-7.3c1.5,0.2,2.8,0.9,4,1.8
	C29.6,20.2,29.8,20.3,29.9,20.4z"/>
</svg>
