<?xml version="1.0" encoding="utf-8"?>
<!-- Generator: Adobe Illustrator 18.1.1, SVG Export Plug-In . SVG Version: 6.00 Build 0)  -->
<svg version="1.1" id="Layer_1" xmlns="http://www.w3.org/2000/svg" xmlns:xlink="http://www.w3.org/1999/xlink" x="0px" y="0px"
	 width="60px" height="58px" viewBox="0 0 60 58" enable-background="new 0 0 60 58" xml:space="preserve">
<g>
	<g>
		<g>
			<g>
				<g>
					<path fill="#FFFFFF" d="M36.8,31c-2.8-2.8-5.6-5.6-8.5-8.5c0.7-0.6,1.5-1.2,2.3-1.7c3.2-2.2,6.7-3.9,10.3-5.2
						c0.7-0.3,1.3-0.1,1.8,0.4c0.2,0.1,0.3,0.3,0.4,0.4c0.7,0.7,0.9,1.4,0.6,2.4c-1.6,4.3-3.6,8.3-6.5,11.9
						C37,30.7,36.9,30.9,36.8,31C36.8,31,36.8,31,36.8,31z"/>
					<path fill="#FFFFFF" d="M16.1,40.6c1.1-0.7,1.4-1.7,1.5-2.9c0.1-0.7,0.1-1.5,0.2-2.2c0.4-2.2,2-3.6,4.3-3.8
						c0.5,0,1.1-0.2,1.6,0c0.5,0.2,0.8,0.7,1.2,1c0.8,0.8,1.6,1.6,2.4,2.4c0.3,0.2,0.4,0.5,0.4,0.9c0.1,0.9,0.1,1.7-0.2,2.6
						c-0.5,1.8-1.8,2.6-3.5,3c-0.5,0.1-0.9,0.2-1.4,0.1c-0.7,0-1.3,0.2-1.8,0.7c-0.1,0.1-0.1,0.1-0.3,0.2c0-0.3,0-0.6,0-0.8
						C19.1,41.7,17.5,41.5,16.1,40.6z"/>
					<path fill="#FFFFFF" d="M35.6,32.2c-1.3,1-2.7,1.8-4.2,2.3c-0.8,0.3-1.6,0.5-2.4,0.7c-0.2,0.1-0.3,0-0.5-0.1
						c-1.4-1.4-2.8-2.8-4.2-4.2c-0.1-0.1-0.2-0.2-0.1-0.3c0.6-2.4,1.4-4.7,3-6.7c0,0,0.1-0.1,0.1-0.1c0,0,0,0,0,0
						C29.9,26.6,32.7,29.4,35.6,32.2z"/>
				</g>
			</g>
		</g>
	</g>
</g>
</svg>
