<?xml version="1.0" encoding="utf-8"?>
<!-- Generator: Adobe Illustrator 18.1.1, SVG Export Plug-In . SVG Version: 6.00 Build 0)  -->
<svg version="1.1" id="Layer_1" xmlns="http://www.w3.org/2000/svg" xmlns:xlink="http://www.w3.org/1999/xlink" x="0px" y="0px"
	 width="95px" height="87px" viewBox="0 0 95 87" enable-background="new 0 0 95 87" xml:space="preserve">
<path fill="#D6373D" d="M6.7,43.4C6.7,20.9,25,2.6,47.6,2.7C71.4,2.9,88.5,22.5,88.3,44C88,66.2,69.8,84.3,47.4,84.3
	C24.9,84.3,6.7,66,6.7,43.4z M62.7,57.9c1-3.7,1.8-7.4,1.9-11.2c-4.8,0-9.5,0-14.3,0c0,3.8,0,7.5,0,11.2
	C54.5,57.9,58.5,57.9,62.7,57.9z M64.6,40.4c-0.2-3.7-0.7-7.2-1.8-10.6c-0.1-0.3-0.6-0.5-0.9-0.5c-1.6-0.1-3.1,0-4.7,0
	c-2.3,0-4.5,0-6.9,0c0,3.8,0,7.4,0,11.1C55.1,40.4,59.8,40.4,64.6,40.4z M13,46.6c0.3,3.8,1.2,7.4,2.7,10.8c0.1,0.2,0.5,0.5,0.7,0.5
	c3.7,0,7.3,0,10.9,0c-0.6-3.8-1.2-7.5-1.9-11.3C21.3,46.6,17.2,46.6,13,46.6z M25.5,40.4c0.6-3.7,1.2-7.4,1.8-11.1
	c-3.6,0-7.3,0-11,0c-0.3,0-0.6,0.4-0.7,0.7c-1.4,3.3-2.3,6.8-2.6,10.4C17.1,40.4,21.3,40.4,25.5,40.4z M44.3,57.9
	c0-3.9,0-7.6,0-11.3c-4.2,0-8.3,0-12.5,0c0.2,3.7,0.8,7.2,1.9,10.7c0.1,0.3,0.5,0.6,0.8,0.6C37.7,57.9,41,57.9,44.3,57.9z
	 M44.3,40.4c0-3.7,0-7.4,0-11.1c-2.8,0-5.6,0-8.3,0c-2,0-2.1,0-2.6,1.9c-0.7,3-1.2,6.1-1.8,9.2C36.1,40.4,40.1,40.4,44.3,40.4z
	 M71,46.6c-0.6,3.8-1.1,7.5-1.6,11.3c2,0,4,0,6.1,0c3.8,0,3.9,0,5-3.7c0.7-2.5,1.2-5,1.8-7.6C78.2,46.6,74.6,46.6,71,46.6z
	 M70.9,40.4c3.7,0,7.3,0,11.1,0c-0.3-3.6-1.2-6.9-2.5-10.2c-0.3-0.7-0.6-1-1.4-0.9c-1.6,0.1-3.2,0-4.8,0c-1.4,0-2.8,0-4.2,0
	C69.8,33,70.3,36.6,70.9,40.4z M37.8,10.3C31,11.8,22.9,17.7,19.7,23c3.2,0,6.4,0,9.5,0c0.2,0,0.6-0.3,0.7-0.5
	C31.9,18,34.5,14,37.8,10.3z M19.5,64.1c4.8,6.3,10.7,10.4,18,12.6c-3.1-3.7-5.6-7.7-7.6-12.1c-0.1-0.2-0.6-0.5-0.9-0.5
	C26,64,22.9,64.1,19.5,64.1z M60.3,64.1c-3.4,0-6.6,0-9.9,0c0,4.2,0,8.3,0,12.6C54.8,73.3,57.9,69.1,60.3,64.1z M50.4,10.2
	c0,4.4,0,8.5,0,12.7c3.3,0,6.6,0,9.9,0C57.9,17.9,54.8,13.7,50.4,10.2z M75.2,23c-3-4.9-11-10.8-16.1-11.9c3.2,3.4,5.6,7.2,7.4,11.4
	c0.1,0.3,0.6,0.5,0.9,0.5C70,23,72.6,23,75.2,23z M60.6,75.5c5.9-2.4,10.8-6.1,14.8-11.4c-2.7,0-5.1,0-7.5,0c-0.3,0-0.8,0.4-1,0.7
	C65.3,68.6,63.2,72.2,60.6,75.5z M44.4,75.4c0-0.7,0.1-1.1,0.1-1.5c0-2.4,0-4.8,0-7.2c0-2.7,0-2.7-2.7-2.7c-1.7,0-3.5,0-5.4,0
	C38.4,68.4,41,72,44.4,75.4z M36.7,22.9c2.6,0,5.1,0,7.6,0c0-3.5,0-6.9,0-10.7C41.1,15.5,38.6,18.9,36.7,22.9z"/>
</svg>
