<?xml version="1.0" encoding="utf-8"?>
<!-- Generator: Adobe Illustrator 18.1.1, SVG Export Plug-In . SVG Version: 6.00 Build 0)  -->
<svg version="1.1" id="Layer_1" xmlns="http://www.w3.org/2000/svg" xmlns:xlink="http://www.w3.org/1999/xlink" x="0px" y="0px"
	 width="95px" height="87px" viewBox="0 0 95 87" enable-background="new 0 0 95 87" xml:space="preserve">
<g>
	<path fill="#D6373D" d="M12.1,12.8v44h71v-44H12.1z M53.1,46c-1.2,0.4-2.3,0.9-3.5,1.3c-1.1-2.9-2.3-5.8-3.4-8.7
		c-1.7,1.2-3.1,2.3-5.1,3.5c0-7.4,0-14.8,0-22.3c5,5.7,9.9,11.2,14.8,16.9c-2.1,0.2-4,0.4-6.1,0.6C50.9,40.2,52,43.1,53.1,46z"/>
	<path fill="#D6373D" d="M56.1,62.1c0.4,1.5,0.8,2.9,1.1,4.3c1.1,4,2.2,8,3.2,11.9c0.2,0.9,0.6,1.3,1.6,1.2c0.4-0.1,0.9-0.1,1.3,0
		c0.3,0.1,0.5,0.4,0.7,0.5c-0.1,0.1-0.1,0.2-0.2,0.3c-10.2,0-20.4,0-30.7,0c-0.1-0.8-0.1-0.8,1.1-0.8c0.6,0,1.2,0,1.9,0
		c1.6-5.8,3.1-11.5,4.7-17.4c-0.5,0-1,0-1.4,0c-10,0-19.9,0-29.9,0c-2.3,0-3.3-1-3.3-3.3c0-16.3,0-32.6,0-48.9c0-2.2,1-3.2,3.3-3.2
		c25.2,0,50.4,0,75.7,0c2.2,0,3.3,1.1,3.3,3.3c0,16.3,0,32.6,0,48.9c0,2.3-1,3.3-3.4,3.3c-9.2,0-18.4,0-27.6,0
		C57.2,62.1,56.8,62.1,56.1,62.1z M83.8,11.4c-24.3,0-48.5,0-72.7,0c0,15.4,0,30.6,0,45.9c24.3,0,48.5,0,72.7,0
		C83.8,42,83.8,26.8,83.8,11.4z"/>
</g>
</svg>
