<?xml version="1.0" encoding="utf-8"?>
<!-- Generator: Adobe Illustrator 18.1.1, SVG Export Plug-In . SVG Version: 6.00 Build 0)  -->
<svg version="1.1" id="Layer_1" xmlns="http://www.w3.org/2000/svg" xmlns:xlink="http://www.w3.org/1999/xlink" x="0px" y="0px"
	 width="95px" height="87px" viewBox="0 0 95 87" enable-background="new 0 0 95 87" xml:space="preserve">
<g>
	<path fill="#D6373D" d="M94.7,62.1c0.6,9.4-6.1,19.5-15.5,22.8c-9.7,3.4-18.4,1.5-25.7-5.7c-6.5-6.4-12.9-12.8-19.3-19.3
		c-9-9-9.8-22.8-2-32.5C41,16.7,57,15.4,67.2,25c7,6.6,13.8,13.6,20.6,20.5C92.2,50,94.5,55.5,94.7,62.1z M45,40.5
		c0,2.1,1.6,3.9,3.7,3.9c2.1,0,4-1.8,4-3.9c0-2-1.8-3.8-3.9-3.9C46.8,36.7,45,38.5,45,40.5z"/>
	<path fill="#D6373D" d="M35.6,28.4c-2.6-4.1-6-6.1-10.8-6.6c-5.1-0.5-10.2,1.1-14.7-1.9C4.9,16.5,4,8,4.4,2.4
		c0.2-2.6-3.9-2.6-4.1,0c-0.4,6,0.8,13,4.5,17.9c2.9,3.8,7.2,5.4,11.9,5.6c6,0.3,11.7-1.4,15.4,4.5C33.5,32.6,37,30.6,35.6,28.4
		L35.6,28.4z"/>
</g>
</svg>
