<?xml version="1.0" encoding="utf-8"?>
<!-- Generator: Adobe Illustrator 18.1.1, SVG Export Plug-In . SVG Version: 6.00 Build 0)  -->
<svg version="1.1" id="Layer_1" xmlns="http://www.w3.org/2000/svg" xmlns:xlink="http://www.w3.org/1999/xlink" x="0px" y="0px"
	 width="60px" height="58px" viewBox="0 0 60 58" enable-background="new 0 0 60 58" xml:space="preserve">
<g>
	<polygon fill="#FFFFFF" points="35,14 35,24 45,24 	"/>
	<path fill="#FFFFFF" d="M37.7,26C37.7,26,37.7,26,37.7,26c0.3,1.7-0.2,3.1-1.2,4.4c-0.8,1-1.8,1.9-2.8,2.7c-1.3,1-2.5,2.1-3.8,3.1
		c-0.2,0.2-0.4,0.4-0.7,0.6c-0.1-0.1-0.3-0.3-0.4-0.4c-1.3-1.1-2.7-2.2-4-3.3c-1.1-0.9-2.1-1.8-2.9-2.9c-0.7-1-1.2-2.1-1.2-3.4
		c0-2.3,1.9-4.3,4.1-4.4c1.9-0.1,3.3,0.6,4.4,2.2c0,0,0,0.1,0.1,0.1c0.5-0.9,1.2-1.5,2.1-2c0.6-0.3,1.1-0.4,1.7-0.4V14H15v30h30V26
		H37.7z"/>
</g>
</svg>
