<?xml version="1.0" encoding="utf-8"?>
<!-- Generator: Adobe Illustrator 18.1.1, SVG Export Plug-In . SVG Version: 6.00 Build 0)  -->
<svg version="1.1" id="Layer_1" xmlns="http://www.w3.org/2000/svg" xmlns:xlink="http://www.w3.org/1999/xlink" x="0px" y="0px"
	 width="60px" height="58px" viewBox="0 0 60 58" enable-background="new 0 0 60 58" xml:space="preserve">
<g>
	<rect x="15.9" y="26.6" fill="#FFFFFF" width="19.7" height="0.8"/>
	<path fill="#FFFFFF" d="M13,18v22h34V18H13z M19,19.6c0.4,0,0.7,0.3,0.7,0.7c0,0.4-0.3,0.7-0.7,0.7s-0.7-0.3-0.7-0.7
		C18.3,19.9,18.6,19.6,19,19.6z M17,19.6c0.4,0,0.7,0.3,0.7,0.7c0,0.4-0.3,0.7-0.7,0.7s-0.7-0.3-0.7-0.7
		C16.3,19.9,16.6,19.6,17,19.6z M14.3,20.3c0-0.4,0.3-0.7,0.7-0.7s0.7,0.3,0.7,0.7c0,0.4-0.3,0.7-0.7,0.7S14.3,20.7,14.3,20.3z
		 M45,28H15v-2h30V28z"/>
</g>
</svg>
