<?xml version="1.0" encoding="utf-8"?>
<!-- Generator: Adobe Illustrator 18.1.1, SVG Export Plug-In . SVG Version: 6.00 Build 0)  -->
<svg version="1.1" id="Layer_1" xmlns="http://www.w3.org/2000/svg" xmlns:xlink="http://www.w3.org/1999/xlink" x="0px" y="0px"
	 width="60px" height="58px" viewBox="0 0 60 58" enable-background="new 0 0 60 58" xml:space="preserve">
<g>
	<g>
		<g>
			<path fill="#FFFFFF" d="M22,29c0-2.2,0-4.4,0-6.5c0-1.7,1-2.3,2.5-1.5c4.1,2.2,8.3,4.5,12.4,6.7c0.2,0.1,0.5,0.3,0.7,0.5
				c0.6,0.5,0.6,1.2,0,1.7c-0.2,0.2-0.5,0.4-0.8,0.5c-4.1,2.2-8.2,4.4-12.2,6.6c-0.2,0.1-0.4,0.2-0.6,0.3c-0.9,0.3-1.7-0.1-1.9-1.1
				C22,36,22,35.7,22,35.4C22,33.3,22,31.1,22,29z"/>
		</g>
	</g>
</g>
</svg>
