<?xml version="1.0" encoding="utf-8"?>
<!-- Generator: Adobe Illustrator 18.1.1, SVG Export Plug-In . SVG Version: 6.00 Build 0)  -->
<svg version="1.1" id="Layer_1" xmlns="http://www.w3.org/2000/svg" xmlns:xlink="http://www.w3.org/1999/xlink" x="0px" y="0px"
	 width="60px" height="58px" viewBox="0 0 60 58" enable-background="new 0 0 60 58" xml:space="preserve">
<g>
	<g>
		<g>
			<g>
				<g>
					<g id="zkqrM8_34_">
						<g>
							<path fill="#FFFFFF" d="M16.2,22.5c2.3-2.3,4.6-4.7,7-7c0,1.1,0,2.3,0,3.5c2.4,0,16.5,0,18.9,0c0,2.4,0,4.7,0,7.1
								c-2.3,0-16.5,0-18.9,0c0,1.2,0,2.3,0,3.5C20.9,27.2,18.6,24.8,16.2,22.5z"/>
						</g>
					</g>
					<g id="zkqrM8_33_">
						<g>
							<path fill="#FFFFFF" d="M43.8,35.5c-2.3,2.3-4.6,4.7-7,7c0-1.1,0-2.3,0-3.5c-2.4,0-16.4,0-18.8,0c0-2.4,0-4.7,0-7.1
								c2.3,0,16.4,0,18.8,0c0-1.2,0-2.3,0-3.5C39.1,30.8,41.4,33.2,43.8,35.5z"/>
						</g>
					</g>
				</g>
			</g>
		</g>
	</g>
</g>
</svg>
