<?xml version="1.0" encoding="utf-8"?>
<!-- Generator: Adobe Illustrator 18.1.1, SVG Export Plug-In . SVG Version: 6.00 Build 0)  -->
<svg version="1.1" xmlns="http://www.w3.org/2000/svg" xmlns:xlink="http://www.w3.org/1999/xlink" x="0px" y="0px" width="83px"
	 height="83px" viewBox="0 0 83 83" enable-background="new 0 0 83 83" xml:space="preserve">
<g id="Layer_1">
	<g>
		<g opacity="0.44">
			<g>
				<path fill="#4D4D4D" d="M21,26v26h43V26H21z M45.9,46.1c-0.7,0.3-1.4,0.5-2.2,0.8c-0.7-1.8-1.1-3.6-1.8-5.4
					c-1,0.7-1.9,1.4-2.9,2.2c0-4.6,0-9.2,0-13.8c2,3.5,5.9,7,8.9,10.4c-1.3,0.1-2.6,0.3-3.9,0.4C44.7,42.5,45.2,44.3,45.9,46.1z"/>
				<path fill="#4D4D4D" d="M47.8,56.1c0.3,0.9,0.5,1.8,0.7,2.6c0.7,2.5,1.4,4.9,2,7.4c0.1,0.6,0.4,0.8,1,0.7c0.3,0,0.5,0,0.8,0
					c0.2,0,0.3,0.2,0.4,0.3c0,0.1-0.1,0.1-0.1,0.2c-6.3,0-12.6,0-19,0c0-0.5,0-0.5,0.7-0.5c0.4,0,0.8,0,1.2,0
					c1-3.6,1.9-7.1,2.9-10.8c-0.3,0-0.6,0-0.9,0c-6.2,0-12.3,0-18.5,0c-1.4,0-2-0.6-2-2c0-10.1,0-20.2,0-30.3c0-1.4,0.6-2,2-2
					c15.6,0,31.2,0,46.8,0c1.4,0,2,0.7,2,2c0,10.1,0,20.2,0,30.3c0,1.4-0.6,2-2.1,2c-5.7,0-11.4,0-17.1,0
					C48.5,56.1,48.2,56.1,47.8,56.1z M64.9,24.7c-15,0-30,0-45,0c0,9.5,0,19,0,28.4c15,0,30,0,45,0C64.9,43.7,64.9,34.2,64.9,24.7z"
					/>
			</g>
		</g>
		<circle opacity="0.54" fill="none" stroke="#666666" stroke-width="2.4242" stroke-miterlimit="10" cx="41.5" cy="41.5" r="40"/>
	</g>
</g>
<g id="Layer_3" display="none">
</g>
<g id="Layer_2" display="none">
	<g display="inline" opacity="0.2">
		<rect x="-49" y="-2265" fill="#CF5E2C" width="76" height="3787"/>
		<rect x="62" y="-2265" fill="#CF5E2C" width="76" height="3787"/>
	</g>
</g>
</svg>
