<?xml version="1.0" encoding="utf-8"?>
<!-- Generator: Adobe Illustrator 18.1.1, SVG Export Plug-In . SVG Version: 6.00 Build 0)  -->
<svg version="1.1" xmlns="http://www.w3.org/2000/svg" xmlns:xlink="http://www.w3.org/1999/xlink" x="0px" y="0px" width="83px"
	 height="83px" viewBox="0 0 83 83" enable-background="new 0 0 83 83" xml:space="preserve">
<g id="Layer_1">
	<g>
		<g opacity="0.4">
			<g>
				<g>
					<g>
						<path fill="#4D4D4D" d="M68.2,52.7c0.3,5.3-3.5,11.1-8.8,13c-5.5,1.9-10.5,0.9-14.7-3.2c-3.7-3.6-7.3-7.3-11-11
							c-5.1-5.1-5.6-13-1.1-18.5c5-6.2,14.2-6.9,19.9-1.4c4,3.8,7.8,7.7,11.7,11.7C66.8,45.8,68.1,48.9,68.2,52.7z M39.9,40.4
							c0,1.2,0.9,2.2,2.1,2.2c1.2,0,2.3-1,2.3-2.2c0-1.2-1-2.2-2.2-2.2C40.9,38.2,39.9,39.2,39.9,40.4z"/>
					</g>
				</g>
				<path fill="#4D4D4D" d="M34.6,33.4c-1.5-2.3-3.4-3.5-6.1-3.8c-2.9-0.3-5.8,0.6-8.4-1.1c-2.9-1.9-3.5-6.7-3.2-9.9
					c0.1-1.5-2.2-1.5-2.3,0c-0.2,3.4,0.4,7.4,2.5,10.2c1.7,2.2,4.1,3,6.7,3.2c3.4,0.2,6.6-0.8,8.8,2.6
					C33.4,35.9,35.4,34.7,34.6,33.4L34.6,33.4z"/>
			</g>
		</g>
		<circle opacity="0.54" fill="none" stroke="#666666" stroke-width="2.4242" stroke-miterlimit="10" cx="41.5" cy="41.5" r="40"/>
	</g>
</g>
<g id="Layer_3" display="none">
</g>
<g id="Layer_2" display="none">
</g>
</svg>
