<?xml version="1.0" encoding="utf-8"?>
<!-- Generator: Adobe Illustrator 18.1.1, SVG Export Plug-In . SVG Version: 6.00 Build 0)  -->
<svg version="1.1" xmlns="http://www.w3.org/2000/svg" xmlns:xlink="http://www.w3.org/1999/xlink" x="0px" y="0px" width="83px"
	 height="83px" viewBox="0 0 83 83" enable-background="new 0 0 83 83" xml:space="preserve">
<g id="Layer_1">
	<g>
		<circle opacity="0.54" fill="none" stroke="#666666" stroke-width="2.4242" stroke-miterlimit="10" cx="41.5" cy="41.5" r="40"/>
		<path opacity="0.44" fill="#4D4D4D" d="M15.6,41.4c0-14.3,11.6-25.9,25.9-25.8c15.1,0.1,26,12.5,25.8,26.2
			c-0.2,14.1-11.7,25.6-25.9,25.6C27.1,67.4,15.6,55.8,15.6,41.4z M51.1,50.6c0.7-2.3,1.1-4.7,1.2-7.1c-3.1,0-6,0-9,0
			c0,2.4,0,4.7,0,7.1C45.9,50.6,48.5,50.6,51.1,50.6z M52.4,39.5c-0.1-2.3-0.5-4.5-1.2-6.7c0-0.2-0.4-0.3-0.6-0.3c-1,0-2,0-3,0
			c-1.4,0-2.9,0-4.4,0c0,2.4,0,4.7,0,7.1C46.3,39.5,49.3,39.5,52.4,39.5z M19.6,43.5c0.2,2.4,0.8,4.7,1.7,6.8
			c0.1,0.2,0.3,0.3,0.5,0.3c2.3,0,4.6,0,6.9,0c-0.4-2.4-0.8-4.8-1.2-7.2C24.9,43.5,22.3,43.5,19.6,43.5z M27.5,39.5
			c0.4-2.4,0.8-4.7,1.2-7.1c-2.3,0-4.6,0-7,0c-0.2,0-0.4,0.2-0.5,0.4c-0.9,2.1-1.5,4.3-1.7,6.6C22.2,39.5,24.9,39.5,27.5,39.5z
			 M39.5,50.6c0-2.4,0-4.8,0-7.1c-2.7,0-5.3,0-7.9,0c0.1,2.4,0.5,4.6,1.2,6.8c0,0.2,0.3,0.4,0.5,0.4C35.3,50.7,37.4,50.6,39.5,50.6z
			 M39.5,39.5c0-2.4,0-4.7,0-7.1c-1.8,0-3.5,0-5.3,0c-1.3,0-1.4,0-1.6,1.2c-0.4,1.9-0.8,3.8-1.2,5.8C34.2,39.5,36.8,39.5,39.5,39.5z
			 M56.4,43.5c-0.4,2.4-0.7,4.8-1,7.2c1.2,0,2.5,0,3.9,0c2.4,0,2.5,0,3.2-2.3c0.5-1.6,0.8-3.2,1.1-4.9C61,43.5,58.7,43.5,56.4,43.5z
			 M56.4,39.5c2.3,0,4.7,0,7,0c-0.2-2.3-0.7-4.4-1.6-6.5c-0.2-0.4-0.4-0.6-0.9-0.6c-1,0-2,0-3,0c-0.9,0-1.8,0-2.6,0
			C55.6,34.8,56,37.1,56.4,39.5z M35.4,20.4c-4.3,1-9.5,4.7-11.5,8.1c2,0,4,0,6,0c0.2,0,0.4-0.2,0.5-0.3
			C31.6,25.3,33.3,22.8,35.4,20.4z M23.8,54.5c3,4,6.8,6.6,11.4,8c-2-2.3-3.6-4.9-4.8-7.7c-0.1-0.2-0.4-0.3-0.6-0.3
			C27.8,54.5,25.9,54.5,23.8,54.5z M49.6,54.6c-2.2,0-4.2,0-6.3,0c0,2.7,0,5.3,0,8C46.2,60.4,48.1,57.7,49.6,54.6z M43.3,20.4
			c0,2.8,0,5.4,0,8c2.1,0,4.2,0,6.3,0C48.1,25.3,46.2,22.6,43.3,20.4z M59.1,28.5c-1.9-3.1-7-6.9-10.2-7.5c2,2.2,3.5,4.6,4.7,7.2
			c0.1,0.2,0.4,0.3,0.6,0.3C55.8,28.5,57.4,28.5,59.1,28.5z M49.8,61.8c3.8-1.5,6.9-3.9,9.4-7.2c-1.7,0-3.2,0-4.8,0
			c-0.2,0-0.5,0.3-0.6,0.5C52.8,57.4,51.5,59.7,49.8,61.8z M39.5,61.8c0-0.4,0-0.7,0-0.9c0-1.5,0-3.1,0-4.6c0-1.7,0-1.7-1.7-1.7
			c-1.1,0-2.2,0-3.4,0C35.8,57.3,37.4,59.6,39.5,61.8z M34.7,28.4c1.7,0,3.3,0,4.8,0c0-2.2,0-4.4,0-6.8
			C37.5,23.8,35.9,25.9,34.7,28.4z"/>
	</g>
</g>
<g id="Layer_3" display="none">
</g>
<g id="Layer_2" display="none">
	<g display="inline" opacity="0.2">
		<rect x="-29" y="-2265" fill="#CF5E2C" width="76" height="3787"/>
		<rect x="82" y="-2265" fill="#CF5E2C" width="76" height="3787"/>
	</g>
</g>
</svg>
