<?xml version="1.0" encoding="utf-8"?>
<!-- Generator: Adobe Illustrator 18.1.1, SVG Export Plug-In . SVG Version: 6.00 Build 0)  -->
<svg version="1.1" id="Layer_1" xmlns="http://www.w3.org/2000/svg" xmlns:xlink="http://www.w3.org/1999/xlink" x="0px" y="0px"
	 width="17.8px" height="32px" viewBox="0 0 17.8 32" enable-background="new 0 0 17.8 32" xml:space="preserve">
<g>
	<g>
		<g>
			<rect x="0.5" y="27.5" fill="none" width="163.1" height="45.6"/>
			<text transform="matrix(1 0 0 1 65.0448 35.7926)" fill="#FFFFFF" font-family="'Georgia'" font-size="11">Mobile</text>
			<path fill="#FFFFFF" d="M17.6,30.4c-0.4,0.8-1,1.2-1.7,1.3c-1.3,0.1-2.6,0.2-3.9,0.2c-2.9,0-5.7,0-8.6,0c-0.5,0-1,0-1.5-0.1
				c-1.2-0.2-1.8-0.7-1.9-1.9C0,28.5,0,27.2,0,26c0-7.1,0-14.3,0-21.4C0,3.8,0.1,3,0.3,2.3c0.2-1,0.9-1.7,1.9-1.9
				c0.7-0.1,1.4-0.2,2-0.2c3.2,0,6.4,0,9.7,0c0.7,0,1.3,0.1,2,0.2c1,0.2,1.7,0.9,1.8,1.9c0.1,0.9,0.2,1.8,0.2,2.6
				c0,7.8,0,15.5,0,23.3C17.8,29,17.7,29.7,17.6,30.4z M16.1,27.4c0-7.8,0-15.5,0-23.3c-4.8,0-9.6,0-14.4,0c0,7.8,0,15.5,0,23.3
				C6.5,27.3,11.3,27.4,16.1,27.4z M6.1,30.1c0.2,0,0.4,0.1,0.5,0.1c1.5,0,3.1,0,4.6,0c0.4,0,0.8-0.1,0.8-0.6c0-0.5-0.4-0.6-0.9-0.6
				c-0.1,0-0.2,0-0.2,0c-1.4,0-2.7,0-4.1,0c-0.2,0-0.5,0-0.7,0.1c-0.2,0.1-0.4,0.3-0.4,0.5C5.8,29.8,6,30,6.1,30.1z M8.5,2.9
				C9,3,9.4,2.8,9.5,2.4c0.1-0.4,0-0.8-0.4-1c-0.4-0.2-0.9,0-1,0.4C7.9,2.2,8.2,2.7,8.5,2.9z"/>
		</g>
	</g>
</g>
</svg>
