<?xml version="1.0" encoding="utf-8"?>
<!-- Generator: Adobe Illustrator 18.1.1, SVG Export Plug-In . SVG Version: 6.00 Build 0)  -->
<svg version="1.1" id="Layer_1" xmlns="http://www.w3.org/2000/svg" xmlns:xlink="http://www.w3.org/1999/xlink" x="0px" y="0px"
	 width="30.5px" height="32px" viewBox="0 0 30.5 32" enable-background="new 0 0 30.5 32" xml:space="preserve">
<g>
	<g>
		<g>
			<rect x="17.1" y="-13.8" fill="none" width="163.1" height="45.6"/>
			<text transform="matrix(1 0 0 1 81.6543 -5.4851)" fill="#FFFFFF" font-family="'Georgia'" font-size="11">Mobile</text>
			<g>
				<path fill="#FFFFFF" d="M15.2,2.2c4.7,0,9.4,0,14.1,0c0.9,0,1.2,0.3,1.2,1.2c0,6.2,0,12.3,0,18.5c0,0.9-0.3,1.2-1.3,1.2
					c-9.3,0-18.7,0-28,0c-0.9,0-1.3-0.3-1.3-1.2C0,15.7,0,9.5,0,3.3c0-0.8,0.3-1.1,1.1-1.1C5.8,2.2,10.5,2.2,15.2,2.2z M28.6,4.1
					c-8.9,0-17.8,0-26.6,0c0,5.7,0,11.4,0,17.1c8.9,0,17.8,0,26.6,0C28.6,15.5,28.6,9.8,28.6,4.1z"/>
				<path fill="#FFFFFF" d="M11.5,27.9c0-1.3,0-2.5,0-3.8c2.5,0,5,0,7.6,0c0,1.2,0,2.5,0,3.8c0.4,0,0.7,0,1,0c0.9,0,1.9,0,2.8,0
					c1.1,0,1.8,0.7,1.8,1.9c-6.3,0-12.7,0-19,0c-0.1-1,0.7-1.9,1.8-1.9c1.1,0,2.2,0,3.3,0C11.1,27.9,11.2,27.9,11.5,27.9z"/>
			</g>
		</g>
	</g>
</g>
</svg>
