<?xml version="1.0" encoding="utf-8"?>
<!-- Generator: Adobe Illustrator 18.1.1, SVG Export Plug-In . SVG Version: 6.00 Build 0)  -->
<svg version="1.1" id="Layer_1" xmlns="http://www.w3.org/2000/svg" xmlns:xlink="http://www.w3.org/1999/xlink" x="0px" y="0px"
	 width="14.3px" height="15px" viewBox="0 0 14.3 15" enable-background="new 0 0 14.3 15" xml:space="preserve">
<path fill="#FFFFFF" d="M0,7.5c0-1.9,0-3.9,0-5.8c0-1.5,0.9-2.1,2.2-1.3c3.7,2,7.4,4,11.1,6c0.2,0.1,0.4,0.3,0.6,0.4
	c0.5,0.5,0.5,1,0,1.5c-0.2,0.2-0.5,0.3-0.7,0.5c-3.6,2-7.3,3.9-10.9,5.9c-0.2,0.1-0.4,0.2-0.6,0.3c-0.8,0.3-1.5-0.1-1.7-0.9
	C0,13.7,0,13.5,0,13.2C0,11.3,0,9.4,0,7.5z"/>
</svg>
