<?xml version="1.0" encoding="utf-8"?>
<!-- Generator: Adobe Illustrator 18.1.1, SVG Export Plug-In . SVG Version: 6.00 Build 0)  -->
<svg version="1.1" id="Layer_1" xmlns="http://www.w3.org/2000/svg" xmlns:xlink="http://www.w3.org/1999/xlink" x="0px" y="0px"
	 width="26.9px" height="18px" viewBox="0 0 26.9 18" enable-background="new 0 0 26.9 18" xml:space="preserve">
<g>
	<path fill="#FFFFFF" d="M12.3,9c0,2.6,0,5.3,0,7.9c0,0.1,0,0.2,0,0.3c0,0.6-0.5,0.9-1,0.8c-0.3-0.1-0.6-0.2-0.8-0.4
		c-1.7-1.2-3.3-2.5-5-3.8c-0.2-0.1-0.4-0.2-0.6-0.2c-1,0-2,0-3,0c-1.2,0-1.8-0.6-1.8-1.8C0,9.9,0,8,0,6.2c0-1.1,0.6-1.7,1.7-1.7
		c1,0,2.1,0,3.1,0c0.2,0,0.4-0.1,0.5-0.2C7,3.1,8.7,1.8,10.4,0.5c0.2-0.2,0.5-0.3,0.8-0.4c0.6-0.2,1.1,0.2,1.1,0.8
		c0,0.2,0,0.3,0,0.5C12.3,3.9,12.3,6.4,12.3,9z"/>
	<g>
		
			<line fill="none" stroke="#FFFFFF" stroke-width="2" stroke-linecap="round" stroke-miterlimit="10" x1="16.7" y1="4.6" x2="25.9" y2="13.8"/>
		
			<line fill="none" stroke="#FFFFFF" stroke-width="2" stroke-linecap="round" stroke-miterlimit="10" x1="16.7" y1="13.8" x2="25.9" y2="4.6"/>
	</g>
</g>
</svg>
