<?xml version="1.0" encoding="utf-8"?>
<!-- Generator: Adobe Illustrator 18.1.1, SVG Export Plug-In . SVG Version: 6.00 Build 0)  -->
<svg version="1.1" id="Layer_1" xmlns="http://www.w3.org/2000/svg" xmlns:xlink="http://www.w3.org/1999/xlink" x="0px" y="0px"
	 width="60px" height="58px" viewBox="0 0 60 58" enable-background="new 0 0 60 58" xml:space="preserve">
<g>
	<g>
		<g>
			<g>
				<g>
					<path fill="#FFFFFF" d="M41.6,40.6c-3-0.3-6-0.5-9.1-0.8c1-1,2-1.9,2.9-2.9c-1.8-1.8-3.6-3.6-5.4-5.4c-1.8,1.8-3.6,3.6-5.3,5.3
						c0.9,0.9,1.9,1.9,2.9,2.8c0,0,0,0.1,0,0.1c-3,0.3-6,0.5-9.1,0.8c0.3-3,0.5-6.1,0.8-9.1c1,1,1.9,2,2.9,2.9
						c1.8-1.8,3.6-3.6,5.4-5.4c-1.8-1.8-3.5-3.6-5.3-5.3c-0.9,0.9-1.9,1.9-2.9,2.9c-0.3-3.1-0.5-6.1-0.8-9.1c3,0.3,6,0.5,9,0.8
						c-1,1-1.9,1.9-2.9,2.9c1.8,1.8,3.6,3.6,5.4,5.4c1.8-1.8,3.6-3.6,5.4-5.4c-0.9-0.9-1.9-1.9-2.9-2.9c3.1-0.3,6.1-0.5,9.1-0.8
						c-0.3,3-0.5,6-0.8,9.1c-1-1-1.9-2-2.9-2.9c-1.8,1.8-3.6,3.6-5.4,5.4c1.8,1.8,3.6,3.6,5.4,5.4c0.9-0.9,1.9-1.9,2.9-2.9
						C41,34.5,41.3,37.5,41.6,40.6z"/>
				</g>
			</g>
		</g>
	</g>
</g>
</svg>
