<?xml version="1.0" encoding="utf-8"?>
<!-- Generator: Adobe Illustrator 18.1.1, SVG Export Plug-In . SVG Version: 6.00 Build 0)  -->
<svg version="1.1" id="Layer_1" xmlns="http://www.w3.org/2000/svg" xmlns:xlink="http://www.w3.org/1999/xlink" x="0px" y="0px"
	 width="60px" height="58px" viewBox="0 0 60 58" enable-background="new 0 0 60 58" xml:space="preserve">
<g>
	<g>
		<g>
			<g>
				<g>
					<path fill="#FFFFFF" d="M20.5,32.4c-0.6,0.5-1.1,1.1-1.7,1.7c0.4,0.4,0.7,0.7,1,1c-0.2,0.2-0.3,0.3-0.5,0.5
						c0.2,0.2,0.3,0.3,0.5,0.5c-1.8,1.8-3.2,3.9-3.7,6.5c0,0,0.1,0.1,0.1,0.1c0.1,0.1,0.2,0.1,0.3,0.2c0,0,0-0.1,0-0.1
						c2.6-0.4,4.6-1.9,6.4-3.7c0.2,0.2,0.4,0.3,0.5,0.5c0.2-0.2,0.3-0.3,0.5-0.5c0.3,0.3,0.7,0.7,1,1c0.5-0.5,1.1-1,1.5-1.5
						c0.1-0.1,0.2-0.2,0.4-0.3l-6.2-6.2C20.6,32.2,20.5,32.3,20.5,32.4z"/>
					<path fill="#FFFFFF" d="M28.2,37.7c0.3,0.1,0.6,0.2,0.9,0.2c1.3,0.2,2.4-0.2,3.3-1.1c3.7-3.7,7.4-7.4,11.1-11.1
						c0.6-0.6,0.6-1.4,0-2c-2.7-2.7-5.5-5.5-8.2-8.2c-0.7-0.7-1.4-0.7-2,0C29.5,19.2,25.7,23,22,26.7c-0.6,0.6-1,1.3-1,2.2
						c0,0.7,0.1,1.4,0.3,2.1c0.1,0.3,0.1,0.4,0,0.6l6.2,6.2C27.6,37.6,27.9,37.6,28.2,37.7z"/>
				</g>
			</g>
		</g>
	</g>
</g>
</svg>
