<?xml version="1.0" encoding="utf-8"?>
<!-- Generator: Adobe Illustrator 18.1.1, SVG Export Plug-In . SVG Version: 6.00 Build 0)  -->
<svg version="1.1" id="Layer_1" xmlns="http://www.w3.org/2000/svg" xmlns:xlink="http://www.w3.org/1999/xlink" x="0px" y="0px"
	 width="60px" height="58px" viewBox="0 0 60 58" enable-background="new 0 0 60 58" xml:space="preserve">
<g>
	<g>
		<g>
			<g>
				<path fill="#FFFFFF" d="M23.6,45.3c-0.8,0-1.5,0-2.1,0c-0.1,0-0.3-0.2-0.4-0.3c-0.8-1.2-1.3-2.5-1.6-3.8c-0.7-3.3-0.8-6.6,0-9.8
					c0.9-3.9,3.3-6.8,6.7-8.9c2.1-1.3,4.5-2.2,6.8-3.1c0.9-0.4,1.9-0.8,2.8-1.2c0.3-0.1,0.5-0.3,0.8-0.4c1.9-1.1,3.3-2.5,3.5-4.9
					c0.1,0.2,0.2,0.5,0.3,0.7c0.9,2.3,1,4.6,0.6,7c-0.7,4.7-2.7,8.7-6.2,11.9c-3.7,3.4-8.1,4.8-13.1,4.1c-0.3,0-0.3-0.1-0.3-0.4
					c0.1-0.8,0.4-1.5,0.7-2.2c0.8-1.4,2-2.6,3.3-3.7c1.3-1,2.6-1.9,3.9-2.9c0.1-0.1,0.2-0.2,0.3-0.3c0,0-0.1,0-0.1,0
					c-2.4,1.2-4.8,2.6-6.8,4.5c-0.7,0.6-1.2,1.3-1.8,2.1c-0.6,0.8-0.8,1.7-0.8,2.7c0.1,1.9,0.3,3.8,1.1,5.6
					C21.7,43.2,22.4,44.3,23.6,45.3z"/>
			</g>
		</g>
	</g>
</g>
</svg>
